# xmcd CD database file
#
# Track frame offsets:
#	150
#	17859
#	32127
#	46928
#	62678
#	79425
#	95580
#	109839
#	122948
#	139420
#	160973
#	178274
#	192795
#	214600
#	231586
#	246007
#	261255
#	273125
#
# Disc length: 3835 seconds
#
# Revision: 0
# Processed by: cddbd v1.5.1PL2 Copyright (c) Steve Scherf et al.
# Submitted via: CDex 1.51
#
DISCID=0d0ef912
DTITLE=Madeleine Peyroux - Careless Love
DYEAR=1900
DGENRE=Jazz
TTITLE0=Dance Me To The End Of Love
TTITLE1=Don't Wait Too Long
TTITLE2=Don't Cry Baby
TTITLE3=You're Gonna Make Me Lonesome When You Go
TTITLE4=Between The Bars
TTITLE5=No More
TTITLE6=Lonesome Road
TTITLE7=J'ai Deux Amours
TTITLE8=Weary Blues
TTITLE9=I'll Look Around
TTITLE10=Careless Love
TTITLE11=This Is Heaven To Me
TTITLE12=Walkin' After Midnight
TTITLE13=I'm Gonna Sit Right Down
TTITLE14=Getting Some Fun Out Of Life
TTITLE15=La Vie En Rose
TTITLE16=A Prayer
TTITLE17=Life Is Fine
EXTD=
EXTT0=
EXTT1=
EXTT2=
EXTT3=
EXTT4=
EXTT5=
EXTT6=
EXTT7=
EXTT8=
EXTT9=
EXTT10=
EXTT11=
EXTT12=
EXTT13=
EXTT14=
EXTT15=
EXTT16=
EXTT17=
PLAYORDER=
